<svg xmlns="http://www.w3.org/2000/svg" viewBox="0 0 512 512" role="img" aria-label="旅遊算 App Icon">
  <defs>
    <linearGradient id="bg" x1="64" y1="32" x2="448" y2="480" gradientUnits="userSpaceOnUse">
      <stop offset="0" stop-color="#123e68"/>
      <stop offset="1" stop-color="#071f3b"/>
    </linearGradient>
    <filter id="softShadow" x="-20%" y="-20%" width="140%" height="140%">
      <feDropShadow dx="0" dy="10" stdDeviation="14" flood-color="#00152b" flood-opacity="0.35"/>
    </filter>
  </defs>
  <rect width="512" height="512" rx="112" fill="url(#bg)"/>
  <circle cx="404" cy="108" r="54" fill="#1c5c8c" opacity="0.55"/>
  <circle cx="92" cy="408" r="72" fill="#0f78a6" opacity="0.28"/>
  <g filter="url(#softShadow)">
    <path d="M119 240l278-122c18-8 35 12 24 29L348 260l54 62c9 10 5 27-8 32l-33 13-61-58-44 77c-5 9-17 12-26 7l-25-14 30-94-91-14c-20-3-25-24-25-31z" fill="#ffffff"/>
    <path d="M238 283l113-92-139 64 26 28z" fill="#d7ecff"/>
  </g>
  <g font-family="Inter, Arial, sans-serif" font-weight="800" text-anchor="middle">
    <text x="174" y="420" font-size="56" fill="#ffffff" opacity="0.96">¥</text>
    <text x="256" y="430" font-size="68" fill="#ffffff">$</text>
    <text x="342" y="420" font-size="56" fill="#ffffff" opacity="0.96">€</text>
  </g>
</svg>
